<?xml version="1.0" encoding="UTF-8"?>
<!DOCTYPE svg PUBLIC "-//W3C//DTD SVG 1.1//EN" "http://www.w3.org/Graphics/SVG/1.1/DTD/svg11.dtd">
<!-- Creator: CorelDRAW 2021.5 -->
<svg xmlns="http://www.w3.org/2000/svg" xml:space="preserve" width="93.5244mm" height="10.9584mm" version="1.1" style="shape-rendering:geometricPrecision; text-rendering:geometricPrecision; image-rendering:optimizeQuality; fill-rule:evenodd; clip-rule:evenodd"
viewBox="0 0 9352.44 1095.84"
 xmlns:xlink="http://www.w3.org/1999/xlink"
 xmlns:xodm="http://www.corel.com/coreldraw/odm/2003">
 <defs>
  <style type="text/css">
   <![CDATA[
    .fil0 {fill:white;fill-rule:nonzero}
   ]]>
  </style>
 </defs>
 <g id="Ebene_x0020_1">
  <metadata id="CorelCorpID_0Corel-Layer"/>
  <path class="fil0" d="M867.98 509.19c-16.45,103.51 -63.41,189.87 -141.17,259.28 -77.75,69.37 -170.76,99.2 -278.8,89.43 -4.3,53.66 -9.34,98.74 -15.06,135.45 -5.96,36.97 -12.15,59.38 -19.3,67.76 -9.8,18.37 -57.5,29.09 -143.13,32.9 -85.86,3.8 -146.43,-2.16 -181.71,-17.42 -15.76,-6.91 -29.83,-53.65 -42.21,-140.24 -12.41,-86.32 -22.44,-183.64 -30.09,-291.68 -7.61,-108.03 -12.61,-212.04 -14.99,-311.97 -2.42,-99.93 -1.92,-166.96 1.42,-200.82 3.12,-31.7 30.06,-55.8 80.64,-72.75 50.54,-16.68 109.19,-27.18 175.76,-31.48 66.53,-4.07 133.56,-2.61 201.28,4.53 67.49,7.39 120.22,18.84 157.92,34.59 198.9,83.95 281.88,231.34 249.44,442.42zm-300.51 -83.94c-10.73,-50.35 -44.82,-78.48 -102.05,-84.44 -10.76,-0.46 -19.37,-0.23 -25.79,0.69 -44.81,7.88 -65.1,39.86 -60.8,95.66 4.04,56.04 19.06,92.29 44.58,109 11.23,7.89 28.37,9.81 51.05,5.73 34.08,-5.22 59.64,-19.79 76.56,-43.66 16.94,-24.06 22.44,-51.73 16.45,-82.98zm1146.49 221.57c47.73,39.59 89.2,77.99 125.22,115.42 35.78,37.21 53.92,65.15 54.38,83.71 0,13.61 -7.61,33.67 -22.87,60.11 -15.52,26.49 -33.17,53.2 -53.19,79.68 -20.06,26.48 -39.39,49.85 -57.96,69.87 -18.64,20.06 -31.51,30.05 -38.39,30.05 -30.33,5.96 -74.45,-9.79 -132.64,-47.23 -57.96,-37.44 -104.47,-62.22 -140.02,-74.41 -34.32,-10.72 -53.15,-6.19 -55.8,13.38 0.5,33.63 -2.62,59.15 -9.04,76.79 -6.68,17.64 -29.36,28.63 -68.72,32.9 -44.58,4.53 -95.62,7.15 -153.35,7.65 -57.46,0.46 -93.97,-0.97 -109.23,-4.31 -10.72,-1.65 -19.29,-7.88 -25.75,-18.14 -9.53,-12.37 -19.56,-70.33 -30.06,-173.15 -10.72,-103 -19.1,-214.65 -25.28,-334.87 -5.96,-120.19 -8.8,-230.38 -8.11,-331.03 0.72,-100.62 8.11,-155.01 22.17,-162.89 50.81,-28.36 118.8,-48.89 203.93,-61.53 85.4,-12.42 170.31,-10.27 254.75,6.65 84.67,16.95 160.27,52.04 227.07,104.96 66.75,52.7 107.77,130.22 122.56,232.33 19.07,135.91 -7.38,233.95 -79.67,294.06zm-351.29 -132.86c35.28,-3.58 62.69,-16.68 82.25,-39.13 19.56,-22.18 29.36,-45.54 29.09,-69.83 -0.23,-24.1 -11.41,-45.09 -33.63,-62.77 -21.9,-17.64 -56.26,-24.1 -103,-18.83 -38.17,4.07 -53.19,37.94 -45.08,101.58 8.34,63.69 31.71,93.28 70.37,88.98zm1645.45 122.37c-24.1,146.67 -95.17,264.97 -213.47,354.9 -118.07,89.9 -255.2,121.88 -411.9,95.86 -150.74,-25.25 -269.54,-97.05 -356.32,-215.85 -86.59,-118.76 -118.3,-250.44 -94.93,-394.95 21.94,-134.06 86.82,-246.63 194.63,-337.72 107.8,-91.13 233.26,-130.48 376.12,-117.84 172.45,15.03 306.47,80.37 402.1,196.33 95.89,116.14 130.48,255.89 103.77,419.27zm-400.91 -59.38c6.42,-40.09 -1.23,-74.18 -22.68,-102.31 -21.71,-28.17 -53.19,-45.81 -94.7,-52.73 -39.13,-6.69 -73.68,1.92 -103.5,25.52 -29.83,23.36 -47.47,53.19 -53.19,88.97 -7.39,43.39 4.8,81.79 36.51,114.92 31.71,33.4 70.83,47.24 117.34,41.51 32.17,-3.08 58.88,-15.72 80.36,-37.67 21.45,-21.71 34.59,-47.92 39.86,-78.21zm1347.31 -67.76c-16.45,103.51 -63.45,189.87 -141.21,259.28 -77.75,69.37 -170.76,99.2 -278.8,89.43 -4.3,53.66 -9.3,98.74 -15.02,135.45 -5.96,36.97 -12.19,59.38 -19.34,67.76 -9.76,18.37 -57.46,29.09 -143.09,32.9 -85.86,3.8 -146.47,-2.16 -181.75,-17.42 -15.73,-6.91 -29.79,-53.65 -42.21,-140.24 -12.41,-86.32 -22.4,-183.64 -30.05,-291.68 -7.65,-108.03 -12.65,-212.04 -15.03,-311.97 -2.38,-99.93 -1.88,-166.96 1.42,-200.82 3.12,-31.7 30.06,-55.8 80.64,-72.75 50.54,-16.68 109.23,-27.18 175.76,-31.48 66.53,-4.07 133.56,-2.61 201.32,4.53 67.49,7.39 120.18,18.84 157.89,34.59 198.89,83.95 281.91,231.34 249.47,442.42zm-300.51 -83.94c-10.77,-50.35 -44.86,-78.48 -102.09,-84.44 -10.72,-0.46 -19.33,-0.23 -25.75,0.69 -44.85,7.88 -65.14,39.86 -60.84,95.66 4.07,56.04 19.1,92.29 44.62,109 11.19,7.89 28.37,9.81 51.04,5.73 34.1,-5.22 59.61,-19.79 76.56,-43.66 16.91,-24.06 22.41,-51.73 16.46,-82.98zm841.21 298.37c81.55,-0.96 155.27,-3.12 220.83,-6.92 65.56,-3.81 104.23,0.69 115.92,13.37 12.64,10.27 21.71,54.62 27.67,133.29 5.72,78.75 3.57,135.98 -6.69,171.26 -4.53,15.03 -41.28,27.22 -109.73,36.98 -68.45,9.76 -145.23,16.45 -230.59,20.02 -85.18,3.35 -166.96,4.08 -245.22,1.66 -78.21,-2.35 -129.25,-8.58 -153.12,-18.84 -13.83,-5.45 -25.52,-43.16 -34.59,-112.8 -9.03,-69.64 -16.22,-151.2 -21.21,-244.44 -5,-93.51 -8.11,-188.67 -9.04,-285.99 -1,-97.09 0,-176.03 2.85,-237.1l0 0c0,-33.59 2.61,-64.15 8.34,-92.05 5.49,-27.67 14.07,-45.08 25.75,-51.96 11.72,-6.96 52.69,-13.15 123.06,-18.15 70.38,-4.99 146.21,-8.37 227.81,-9.53 81.55,-0.96 156.92,0.23 226.32,4.27 69.42,4.07 109.23,10.99 119.5,21.25 12.64,10.23 19.79,50.81 21.21,121.38 1.65,70.6 -2.61,123.8 -12.87,159.58 -5.04,16.68 -37.71,27.17 -98.01,31.24 -60.33,3.81 -130.93,7.15 -211.57,10.03 0,5.46 0.27,12.15 0.73,19.53 0.46,7.42 0.96,14.07 1.42,19.56 52.7,0.96 95.63,5 128.56,11.92 7.85,2.38 15.72,16.22 23.37,41.5 7.88,25.53 13.11,53.2 16.22,83.26 3.08,30.05 2.85,57.72 -0.5,83.47 -3.07,25.52 -11.41,39.32 -24.29,41.28 -9.34,2.62 -26.25,5.23 -50.81,7.15 -24.33,2.12 -51.54,3.8 -81.32,4.73 0,5.99 0,12.91 0,20.79 0,8.07 0,14.76 0,20.26zm1165.31 -76.8c47.69,39.59 89.16,77.99 125.22,115.42 35.74,37.21 53.88,65.15 54.38,83.71 0,13.61 -7.65,33.67 -22.91,60.11 -15.49,26.49 -33.17,53.2 -53.19,79.68 -20.02,26.48 -39.35,49.85 -57.96,69.87 -18.6,20.06 -31.48,30.05 -38.39,30.05 -30.29,5.96 -74.41,-9.79 -132.6,-47.23 -57.96,-37.44 -104.47,-62.22 -140.02,-74.41 -34.36,-10.72 -53.19,-6.19 -55.81,13.38 0.47,33.63 -2.61,59.15 -9.07,76.79 -6.68,17.64 -29.32,28.63 -68.68,32.9 -44.62,4.53 -95.62,7.15 -153.35,7.65 -57.5,0.46 -93.97,-0.97 -109.23,-4.31 -10.76,-1.65 -19.33,-7.88 -25.79,-18.14 -9.53,-12.37 -19.56,-70.33 -30.02,-173.15 -10.76,-103 -19.1,-214.65 -25.29,-334.87 -5.95,-120.19 -8.83,-230.38 -8.11,-331.03 0.73,-100.62 8.11,-155.01 22.18,-162.89 50.81,-28.36 118.76,-48.89 203.93,-61.53 85.37,-12.42 170.27,-10.27 254.71,6.65 84.67,16.95 160.27,52.04 227.07,104.96 66.76,52.7 107.8,130.22 122.56,232.33 19.11,135.91 -7.37,233.95 -79.63,294.06zm-351.33 -132.86c35.32,-3.58 62.72,-16.68 82.29,-39.13 19.56,-22.18 29.32,-45.54 29.09,-69.83 -0.23,-24.1 -11.45,-45.09 -33.63,-62.77 -21.94,-17.64 -56.26,-24.1 -103.04,-18.83 -38.13,4.07 -53.19,37.94 -45.08,101.58 8.38,63.69 31.74,93.28 70.37,88.98zm1295.58 547.15c-5.26,9.53 -22.18,16.91 -51.04,22.4 -28.86,5.73 -61.3,9.07 -97.55,10.5 -36.01,1.42 -71.79,0.73 -107.11,-2.16 -35.52,-2.61 -62.23,-8.11 -80.37,-15.98 -19.06,-8.31 -36.24,-77.03 -51.5,-205.82 -15.03,-128.79 -26.71,-259.01 -34.59,-390.91 -68.91,-1.43 -128.33,-5 -178.18,-10.73 -49.81,-5.95 -77.26,-14.56 -82.48,-25.52 -8.84,-17.91 -16.26,-46.27 -22.22,-85.63 -6.19,-39.32 -10.03,-79.67 -11.91,-120.91 -1.93,-41.24 -1.42,-78.48 0.96,-111.88 2.61,-33.14 8.61,-52.47 17.87,-57.7 13.61,-10.49 59.15,-19.33 136.9,-25.78 77.75,-6.42 167.19,-10.96 268.35,-13.57 101.08,-2.61 203.9,-3.35 308.13,-2.15 104.46,1.19 190.09,3.84 257.12,8.11 26.72,1.92 44.82,24.56 54.62,68.45 9.76,43.89 13.1,91.82 10.49,143.82 -2.88,52.23 -10.99,100.16 -24.1,144.05 -13.33,43.89 -29.55,66.3 -48.66,67.72 -17.64,2.88 -46,5.5 -85.13,8.11 -39.12,2.65 -83.24,4.81 -132.13,6.69 -1.43,131.17 -6.23,257.85 -14.8,379.73 -8.34,121.87 -19.3,191.52 -32.67,209.16zm1499.47 -758.69c-3.34,21.44 -34.32,68.22 -93.24,140.7 -58.92,72.49 -129.75,148.59 -212.27,228.26 -4.54,97.78 -13.14,185.56 -25.29,263.32 -12.41,77.75 -23.83,123.56 -34.09,136.9 -5.5,6.69 -24.56,11.68 -56.81,15.49 -32.4,3.57 -67.72,5.99 -106.34,6.92 -38.4,0.96 -74.41,0.96 -108.27,0 -33.67,-0.93 -54.16,-3.58 -61.08,-7.61 -15.25,-8.38 -31.24,-51.28 -47.92,-129.03 -16.45,-77.52 -29.14,-165.07 -37.94,-262.39 -86.36,-81.05 -160.73,-158.85 -223.23,-233.26 -62.76,-74.63 -95.43,-123.06 -98.27,-145.47 -3.35,-12.87 4.76,-34.82 23.87,-65.6 19.06,-30.75 41.97,-61.77 69.14,-93.25 26.94,-31.47 54.15,-59.38 81.33,-83.48 27.21,-24.32 47,-36.97 58.92,-37.66 27.17,-1.42 70.1,21.68 129.02,69.37 58.92,47.7 121.87,103.77 189.13,168.15 67.53,-64.38 130.72,-120.64 189.64,-169.11 58.88,-48.39 102.31,-71.79 130.21,-69.83 11.69,0.92 31.25,12.83 58.43,35.97 27.21,22.91 54.38,49.39 81.82,79.21 27.18,29.79 50.54,59.38 69.88,88.71 19.33,29.33 26.94,50.58 23.36,63.69zm286.56 -150.43c4.92,2.99 12.37,7.91 21.71,15.25 44.55,35.09 62.38,80.91 52.97,137.87 -12.53,75.36 -56.04,118.11 -130.72,127.1 -36.2,4.34 -71.33,-4.04 -105.42,-24.56 -34.09,-20.52 -55.5,-49.04 -63.69,-85.86 -4.46,-19.95 -3.92,-40.47 -1.19,-61.54 3.69,-28.28 22.1,-71.87 56.77,-129.98 34.74,-58.27 70.41,-85.4 106.61,-81.1 17.68,2.12 26.48,16.22 26.48,41.74 0,25.29 12.07,45.97 36.48,61.08zm624.53 216.73c-9.77,0.96 -18.6,-1.66 -26.45,-7.65 -9.8,-6.88 -14.79,-14.76 -15.06,-23.14 -0.23,-8.34 -5,-16.22 -14.3,-23.6 -23.37,-18.37 -52.96,-15.03 -88.75,9.8 -35.97,24.56 -20.98,43.62 44.63,57.23 6.92,1.42 14.8,2.84 23.14,4.54 8.34,1.68 16.94,3.11 25.75,4.53 107.07,18.6 191.74,50.54 253.78,95.62 76.33,56.08 120.18,129.03 131.64,219.19 11.49,90.17 -13.61,170.8 -75.1,242.1 -72.76,84.17 -171.04,132.6 -295.29,145.01 -124.03,12.42 -231.34,-13.6 -321.74,-78.02 -77.75,-54.34 -126.41,-123.03 -145.97,-206.04 -8.34,-39.13 11.22,-69.42 58.65,-90.9 21.02,-9.76 44.16,-16.68 69.45,-20.98 25.52,-4.04 49.81,-6.42 73.21,-6.88 38.13,0 72.49,4.49 103.28,13.56 30.75,9.07 48.16,21.95 52.42,38.9 0.5,3.07 1.7,6.42 3.62,9.76 4.99,11.45 14.79,20.29 29.32,25.75 17.18,6.92 37.21,5.96 60.34,-3.07 23.14,-9.07 29.6,-24.56 19.8,-46.51 -5,-10.26 -19.07,-18.6 -41.74,-25.29 -54.62,-15.76 -108.73,-27.67 -162.89,-35.78 -53.88,-8.34 -105.19,-30.29 -153.62,-66.07 -35.05,-25.25 -62.49,-59.61 -82.29,-103.5 -19.75,-43.63 -26.44,-101.85 -19.75,-173.88 9.3,-97.54 56.03,-177.45 140.44,-240.41 49.39,-36.74 105.69,-61.3 169.11,-73.71 63.22,-12.38 124.76,-12.38 184.37,0 59.65,12.41 113.3,36.97 161,73.95 47.92,37.2 80.86,86.32 98.97,147.85 6.91,23.87 0.27,44.16 -20.03,61.07 -20.25,17.18 -45.31,31.25 -75.6,42.47 -30.28,10.96 -61.3,19.57 -93.01,25.02 -31.75,5.5 -55.34,8.58 -71.33,9.08z"/>
 </g>
</svg>
