<?xml version="1.0" encoding="UTF-8"?>
<!DOCTYPE svg PUBLIC "-//W3C//DTD SVG 1.1//EN" "http://www.w3.org/Graphics/SVG/1.1/DTD/svg11.dtd">
<!-- Creator: CorelDRAW 2019 (64-Bit) -->
<svg xmlns="http://www.w3.org/2000/svg" xml:space="preserve" width="36.8062mm" height="4.3902mm" version="1.1" style="shape-rendering:geometricPrecision; text-rendering:geometricPrecision; image-rendering:optimizeQuality; fill-rule:evenodd; clip-rule:evenodd"
viewBox="0 0 3680.62 439.02"
 xmlns:xlink="http://www.w3.org/1999/xlink"
 xmlns:xodm="http://www.corel.com/coreldraw/odm/2003">
 <defs>
  <style type="text/css">
   <![CDATA[
    .fil0 {fill:#EF7F1A;fill-rule:nonzero}
   ]]>
  </style>
 </defs>
 <g id="Ebene_x0020_1">
  <metadata id="CorelCorpID_0Corel-Layer"/>
  <g id="_2068839389072">
   <path class="fil0" d="M340.4 202.21c-6.47,40.7 -24.94,74.64 -55.51,101.93 -30.57,27.28 -67.14,39 -109.61,35.16 -1.69,21.1 -3.66,38.82 -5.91,53.26 -2.35,14.53 -4.78,23.35 -7.6,26.63 -3.84,7.22 -22.6,11.44 -56.26,12.94 -33.75,1.5 -57.57,-0.85 -71.45,-6.85 -6.19,-2.72 -11.72,-21.1 -16.59,-55.13 -4.88,-33.95 -8.82,-72.2 -11.82,-114.68 -3,-42.48 -4.97,-83.36 -5.91,-122.65 -0.93,-39.28 -0.75,-65.63 0.57,-78.95 1.22,-12.47 11.81,-21.94 31.69,-28.6 19.88,-6.56 42.94,-10.69 69.11,-12.37 26.16,-1.6 52.5,-1.03 79.13,1.78 26.54,2.9 47.26,7.41 62.08,13.59 78.2,33.01 110.83,90.96 98.08,173.94zm-118.15 -33c-4.22,-19.79 -17.63,-30.85 -40.13,-33.2 -4.22,-0.19 -7.6,-0.09 -10.13,0.28 -17.62,3.1 -25.6,15.66 -23.91,37.6 1.6,22.04 7.5,36.29 17.54,42.86 4.4,3.09 11.16,3.84 20.06,2.25 13.41,-2.07 23.44,-7.79 30.1,-17.16 6.66,-9.47 8.82,-20.35 6.47,-32.63z"/>
   <path class="fil0" d="M672.99 256.31c18.76,15.57 35.07,30.67 49.23,45.39 14.07,14.63 21.19,25.6 21.38,32.91 0,5.34 -3,13.22 -9,23.63 -6.1,10.41 -13.04,20.91 -20.91,31.32 -7.88,10.41 -15.47,19.59 -22.79,27.47 -7.31,7.88 -12.38,11.82 -15.09,11.82 -11.91,2.34 -29.26,-3.85 -52.14,-18.57 -22.78,-14.72 -41.07,-24.47 -55.04,-29.26 -13.5,-4.21 -20.91,-2.43 -21.94,5.26 0.19,13.22 -1.03,23.25 -3.56,30.19 -2.63,6.94 -11.54,11.25 -27.01,12.94 -17.53,1.78 -37.6,2.81 -60.29,3 -22.6,0.19 -36.95,-0.38 -42.95,-1.69 -4.22,-0.66 -7.59,-3.09 -10.12,-7.13 -3.75,-4.87 -7.69,-27.66 -11.82,-68.07 -4.22,-40.51 -7.5,-84.39 -9.94,-131.65 -2.34,-47.26 -3.47,-90.58 -3.18,-130.15 0.28,-39.57 3.18,-60.94 8.72,-64.04 19.97,-11.16 46.69,-19.22 80.17,-24.19 33.56,-4.88 66.95,-4.03 100.14,2.62 33.29,6.66 63.01,20.45 89.26,41.26 26.26,20.72 42.39,51.2 48.2,91.33 7.5,53.45 -2.91,91.99 -31.32,115.61zm-138.12 -52.22c13.88,-1.41 24.66,-6.57 32.35,-15.38 7.69,-8.72 11.54,-17.91 11.44,-27.47 -0.09,-9.47 -4.5,-17.73 -13.22,-24.67 -8.62,-6.93 -22.13,-9.47 -40.51,-7.4 -15,1.59 -20.91,14.91 -17.72,39.94 3.28,25.04 12.47,36.66 27.66,34.98z"/>
   <path class="fil0" d="M1181.77 252.19c-9.47,57.67 -37.41,104.17 -83.92,139.52 -46.41,35.35 -100.33,47.92 -161.94,37.7 -59.26,-9.94 -105.95,-38.16 -140.08,-84.86 -34.04,-46.7 -46.51,-98.46 -37.32,-155.28 8.62,-52.7 34.13,-96.95 76.51,-132.77 42.38,-35.82 91.71,-51.29 147.87,-46.32 67.8,5.9 120.49,31.6 158.09,77.17 37.7,45.66 51.29,100.61 40.79,164.84zm-157.62 -23.35c2.53,-15.75 -0.47,-29.16 -8.91,-40.22 -8.53,-11.07 -20.91,-18.01 -37.22,-20.73 -15.38,-2.62 -28.98,0.75 -40.7,10.04 -11.72,9.19 -18.66,20.91 -20.91,34.97 -2.91,17.07 1.88,32.16 14.35,45.2 12.47,13.12 27.85,18.56 46.13,16.31 12.66,-1.22 23.16,-6.19 31.6,-14.81 8.44,-8.54 13.6,-18.85 15.66,-30.76z"/>
   <path class="fil0" d="M1553.84 202.21c-6.47,40.7 -24.94,74.64 -55.51,101.93 -30.57,27.28 -67.14,39 -109.61,35.16 -1.69,21.1 -3.66,38.82 -5.91,53.26 -2.35,14.53 -4.78,23.35 -7.6,26.63 -3.84,7.22 -22.6,11.44 -56.26,12.94 -33.75,1.5 -57.57,-0.85 -71.45,-6.85 -6.19,-2.72 -11.72,-21.1 -16.59,-55.13 -4.88,-33.95 -8.82,-72.2 -11.82,-114.68 -3,-42.48 -4.97,-83.36 -5.91,-122.65 -0.93,-39.28 -0.75,-65.63 0.57,-78.95 1.22,-12.47 11.81,-21.94 31.69,-28.6 19.88,-6.56 42.94,-10.69 69.11,-12.37 26.16,-1.6 52.5,-1.03 79.13,1.78 26.54,2.9 47.26,7.41 62.08,13.59 78.2,33.01 110.83,90.96 98.08,173.94zm-118.15 -33c-4.22,-19.79 -17.63,-30.85 -40.13,-33.2 -4.22,-0.19 -7.6,-0.09 -10.13,0.28 -17.62,3.1 -25.6,15.66 -23.91,37.6 1.6,22.04 7.5,36.29 17.54,42.86 4.4,3.09 11.16,3.84 20.06,2.25 13.41,-2.07 23.44,-7.79 30.1,-17.16 6.66,-9.47 8.82,-20.35 6.47,-32.63z"/>
   <path class="fil0" d="M1766.41 286.51c32.07,-0.38 61.04,-1.22 86.83,-2.72 25.78,-1.5 40.98,0.28 45.57,5.25 4.97,4.03 8.53,21.47 10.88,52.42 2.25,30.94 1.4,53.44 -2.63,67.32 -1.78,5.91 -16.22,10.69 -43.13,14.53 -26.91,3.85 -57.11,6.47 -90.67,7.88 -33.48,1.31 -65.64,1.59 -96.4,0.66 -30.75,-0.94 -50.82,-3.38 -60.19,-7.41 -5.44,-2.16 -10.04,-16.97 -13.6,-44.35 -3.56,-27.38 -6.38,-59.45 -8.35,-96.11 -1.96,-36.76 -3.18,-74.17 -3.56,-112.43 -0.37,-38.16 0,-69.2 1.13,-93.2l0 0c0,-13.23 1.03,-25.23 3.28,-36.2 2.15,-10.88 5.53,-17.72 10.13,-20.44 4.59,-2.72 20.72,-5.16 48.38,-7.13 27.66,-1.96 57.48,-3.28 89.55,-3.75 32.06,-0.37 61.69,0.1 88.98,1.69 27.29,1.6 42.95,4.31 46.98,8.35 4.97,4.03 7.78,19.97 8.34,47.72 0.66,27.76 -1.03,48.67 -5.06,62.73 -1.97,6.57 -14.82,10.69 -38.54,12.29 -23.72,1.5 -51.48,2.81 -83.17,3.94 0,2.15 0.09,4.78 0.28,7.68 0.19,2.91 0.38,5.54 0.56,7.69 20.73,0.38 37.6,1.97 50.54,4.69 3.1,0.94 6.19,6.38 9.19,16.32 3.1,10.03 5.16,20.91 6.38,32.72 1.22,11.82 1.12,22.69 -0.19,32.82 -1.22,10.03 -4.5,15.47 -9.56,16.22 -3.66,1.03 -10.32,2.06 -19.97,2.81 -9.57,0.85 -20.26,1.5 -31.98,1.88 0,2.34 0,5.06 0,8.16 0,3.19 0,5.81 0,7.97z"/>
   <path class="fil0" d="M2224.55 256.31c18.76,15.57 35.07,30.67 49.23,45.39 14.07,14.63 21.19,25.6 21.38,32.91 0,5.34 -3,13.22 -9,23.63 -6.1,10.41 -13.04,20.91 -20.91,31.32 -7.88,10.41 -15.47,19.59 -22.79,27.47 -7.31,7.88 -12.38,11.82 -15.09,11.82 -11.91,2.34 -29.26,-3.85 -52.14,-18.57 -22.78,-14.72 -41.07,-24.47 -55.04,-29.26 -13.5,-4.21 -20.91,-2.43 -21.94,5.26 0.19,13.22 -1.03,23.25 -3.56,30.19 -2.63,6.94 -11.54,11.25 -27.01,12.94 -17.53,1.78 -37.6,2.81 -60.29,3 -22.6,0.19 -36.95,-0.38 -42.95,-1.69 -4.22,-0.66 -7.59,-3.09 -10.12,-7.13 -3.75,-4.87 -7.69,-27.66 -11.82,-68.07 -4.22,-40.51 -7.5,-84.39 -9.94,-131.65 -2.34,-47.26 -3.47,-90.58 -3.18,-130.15 0.28,-39.57 3.18,-60.94 8.72,-64.04 19.97,-11.16 46.69,-19.22 80.17,-24.19 33.56,-4.88 66.95,-4.03 100.14,2.62 33.29,6.66 63.01,20.45 89.26,41.26 26.26,20.72 42.39,51.2 48.2,91.33 7.5,53.45 -2.91,91.99 -31.32,115.61zm-138.12 -52.22c13.88,-1.41 24.66,-6.57 32.35,-15.38 7.69,-8.72 11.54,-17.91 11.44,-27.47 -0.09,-9.47 -4.5,-17.73 -13.22,-24.67 -8.62,-6.93 -22.13,-9.47 -40.51,-7.4 -15,1.59 -20.91,14.91 -17.72,39.94 3.28,25.04 12.47,36.66 27.66,34.98z"/>
   <path class="fil0" d="M2595.78 419.19c-2.07,3.75 -8.73,6.66 -20.07,8.81 -11.35,2.25 -24.1,3.56 -38.35,4.13 -14.16,0.56 -28.23,0.28 -42.1,-0.85 -13.97,-1.03 -24.48,-3.18 -31.6,-6.28 -7.5,-3.28 -14.25,-30.29 -20.26,-80.92 -5.9,-50.63 -10.5,-101.83 -13.59,-153.68 -27.1,-0.57 -50.45,-1.97 -70.05,-4.22 -19.59,-2.35 -30.38,-5.72 -32.44,-10.04 -3.47,-7.03 -6.37,-18.19 -8.72,-33.66 -2.44,-15.47 -3.94,-31.32 -4.69,-47.54 -0.75,-16.22 -0.56,-30.85 0.38,-43.97 1.03,-13.04 3.37,-20.63 7.03,-22.7 5.34,-4.12 23.25,-7.59 53.82,-10.12 30.57,-2.53 65.73,-4.32 105.49,-5.35 39.76,-1.03 80.17,-1.31 121.15,-0.84 41.07,0.47 74.73,1.5 101.08,3.19 10.5,0.75 17.62,9.66 21.47,26.91 3.84,17.25 5.16,36.1 4.13,56.54 -1.13,20.53 -4.32,39.38 -9.48,56.63 -5.25,17.26 -11.62,26.07 -19.12,26.63 -6.94,1.13 -18.1,2.16 -33.48,3.19 -15.38,1.03 -32.72,1.88 -51.95,2.63 -0.56,51.57 -2.43,101.36 -5.81,149.27 -3.28,47.92 -7.59,75.3 -12.84,82.24z"/>
   <path class="fil0" d="M3185.29 120.92c-1.31,8.43 -13.5,26.81 -36.66,55.32 -23.16,28.5 -51.01,58.41 -83.46,89.73 -1.78,38.45 -5.15,72.95 -9.94,103.52 -4.87,30.57 -9.37,48.57 -13.4,53.82 -2.16,2.63 -9.66,4.6 -22.32,6.1 -12.75,1.4 -26.63,2.34 -41.82,2.72 -15.1,0.37 -29.26,0.37 -42.57,0 -13.22,-0.38 -21.29,-1.41 -24.01,-3 -6,-3.28 -12.28,-20.16 -18.84,-50.73 -6.47,-30.48 -11.44,-64.89 -14.91,-103.14 -33.94,-31.88 -63.2,-62.45 -87.77,-91.71 -24.66,-29.35 -37.5,-48.38 -38.63,-57.2 -1.31,-5.06 1.88,-13.69 9.38,-25.78 7.5,-12.1 16.5,-24.29 27.19,-36.66 10.6,-12.38 21.29,-23.35 31.97,-32.82 10.69,-9.57 18.48,-14.54 23.17,-14.82 10.68,-0.56 27.56,8.54 50.72,27.29 23.16,18.75 47.92,40.79 74.36,66.1 26.54,-25.31 51.38,-47.44 74.54,-66.48 23.16,-19.03 40.23,-28.22 51.2,-27.47 4.6,0.37 12.28,5.06 22.97,14.16 10.69,9 21.38,19.41 32.17,31.13 10.69,11.72 19.87,23.35 27.47,34.88 7.59,11.53 10.59,19.88 9.19,25.04z"/>
   <path class="fil0" d="M3234.18 112.57c-1.97,-1.13 -4.87,-3.09 -8.53,-6 -17.53,-13.78 -24.47,-31.79 -20.82,-54.2 4.97,-29.63 22.04,-46.32 51.39,-49.98 14.25,-1.59 28.03,1.6 41.44,9.66 13.41,8.07 21.66,19.32 25.04,33.76 1.59,7.87 1.78,15.94 0.47,24.19 -1.22,11.16 -8.72,28.22 -22.32,51.1 -13.69,22.88 -27.66,33.48 -41.91,31.88 -6.94,-0.93 -10.41,-6.37 -10.41,-16.41 0,-9.94 -4.78,-18 -14.35,-24z"/>
   <path class="fil0" d="M3543.48 146.98c-3.85,0.38 -7.31,-0.65 -10.41,-3 -3.84,-2.72 -5.81,-5.81 -5.91,-9.09 -0.09,-3.28 -1.97,-6.38 -5.62,-9.29 -9.19,-7.22 -20.82,-5.9 -34.88,3.85 -14.16,9.66 -8.25,17.16 17.53,22.5 2.72,0.57 5.81,1.13 9.1,1.78 3.28,0.66 6.65,1.22 10.12,1.79 42.1,7.31 75.39,19.87 99.77,37.6 30.01,22.03 47.26,50.72 51.76,86.17 4.5,35.44 -5.34,67.13 -29.54,95.17 -28.6,33.1 -67.23,52.14 -116.08,57.01 -48.76,4.88 -90.95,-5.34 -126.49,-30.66 -30.57,-21.38 -49.7,-48.38 -57.39,-81.02 -3.28,-15.37 4.41,-27.28 23.07,-35.72 8.25,-3.84 17.35,-6.56 27.29,-8.25 10.03,-1.6 19.59,-2.53 28.78,-2.72 15.01,0 28.51,1.78 40.6,5.34 12.1,3.57 18.94,8.63 20.63,15.29 0.19,1.22 0.66,2.53 1.41,3.84 1.97,4.5 5.81,7.97 11.53,10.13 6.75,2.72 14.63,2.34 23.73,-1.22 9.09,-3.56 11.62,-9.66 7.78,-18.28 -1.97,-4.04 -7.5,-7.32 -16.41,-9.94 -21.47,-6.19 -42.76,-10.88 -64.04,-14.07 -21.2,-3.28 -41.35,-11.91 -60.39,-25.97 -13.78,-9.94 -24.57,-23.44 -32.35,-40.7 -7.78,-17.16 -10.41,-40.04 -7.78,-68.35 3.66,-38.35 22.03,-69.77 55.23,-94.52 19.41,-14.44 41.54,-24.1 66.48,-28.97 24.85,-4.88 49.04,-4.88 72.48,0 23.44,4.87 44.54,14.53 63.29,29.06 18.85,14.63 31.79,33.95 38.91,58.14 2.72,9.38 0.1,17.35 -7.87,24 -7.97,6.76 -17.82,12.29 -29.73,16.69 -11.9,4.32 -24.09,7.69 -36.56,9.85 -12.48,2.16 -21.76,3.38 -28.04,3.56z"/>
  </g>
 </g>
</svg>
