<?xml version="1.0" encoding="UTF-8"?>
<!DOCTYPE svg PUBLIC "-//W3C//DTD SVG 1.1//EN" "http://www.w3.org/Graphics/SVG/1.1/DTD/svg11.dtd">
<!-- Creator: CorelDRAW 2019 (64-Bit) -->
<svg xmlns="http://www.w3.org/2000/svg" xml:space="preserve" width="81.28mm" height="45.72mm" version="1.1" style="shape-rendering:geometricPrecision; text-rendering:geometricPrecision; image-rendering:optimizeQuality; fill-rule:evenodd; clip-rule:evenodd"
viewBox="0 0 8128 4572"
 xmlns:xlink="http://www.w3.org/1999/xlink"
 xmlns:xodm="http://www.corel.com/coreldraw/odm/2003">
 <defs>
  <style type="text/css">
   <![CDATA[
    .fil0 {fill:white;fill-rule:nonzero}
   ]]>
  </style>
 </defs>
 <g id="Ebene_x0020_1">
  <metadata id="CorelCorpID_0Corel-Layer"/>
  <path class="fil0" d="M4255.19 2262.42c-7.52,47.32 -29,86.79 -64.54,118.52 -35.55,31.73 -78.08,45.35 -127.47,40.88 -1.96,24.54 -4.25,45.14 -6.87,61.93 -2.73,16.9 -5.56,27.15 -8.83,30.97 -4.47,8.39 -26.28,13.3 -65.43,15.05 -39.25,1.74 -66.95,-0.99 -83.08,-7.96 -7.2,-3.17 -13.63,-24.54 -19.3,-64.11 -5.67,-39.47 -10.25,-83.96 -13.74,-133.35 -3.49,-49.39 -5.78,-96.93 -6.87,-142.61 -1.09,-45.69 -0.87,-76.33 0.66,-91.81 1.41,-14.5 13.73,-25.51 36.85,-33.25 23.11,-7.63 49.93,-12.43 80.35,-14.39 30.43,-1.86 61.07,-1.2 92.04,2.07 30.85,3.38 54.95,8.61 72.19,15.81 90.93,38.38 128.87,105.76 114.04,202.25zm-137.39 -38.38c-4.9,-23 -20.49,-35.87 -46.66,-38.6 -4.91,-0.21 -8.83,-0.11 -11.78,0.33 -20.5,3.6 -29.76,18.21 -27.8,43.72 1.85,25.63 8.72,42.2 20.39,49.83 5.12,3.6 12.97,4.47 23.33,2.62 15.59,-2.4 27.26,-9.05 35,-19.96 7.74,-11.01 10.25,-23.66 7.52,-37.94z"/>
 </g>
</svg>
