<?xml version="1.0" standalone="no"?>
<!-- Generator: Adobe Fireworks 10, Export SVG Extension by Aaron Beall (http://fireworks.abeall.com) . Version: 0.6.1  -->
<!DOCTYPE svg PUBLIC "-//W3C//DTD SVG 1.1//EN" "http://www.w3.org/Graphics/SVG/1.1/DTD/svg11.dtd">
<svg id="Untitled-Page%201" viewBox="0 0 537 568" style="background-color:#ffffff00" version="1.1"
	xmlns="http://www.w3.org/2000/svg" xmlns:xlink="http://www.w3.org/1999/xlink" xml:space="preserve"
	x="0px" y="0px" width="537px" height="568px"
>
	<path d="M 401 327 L 401 403 L 340 432 L 340 357 L 401 327 ZM 231 568 L 504 430 L 504 222 L 533 207 C 533 207 539.5 204 534 195 C 528.5 186 422 3 422 3 C 422 3 421 -2 413 2 C 405 6 115 152 115 152 L 5 230 C 5 230 -2.5 233.5 2 241 C 6.5 248.5 8.5 251.5 20 245 C 31.5 238.5 34 238 34 238 L 34 472 L 83 495 L 83 500 L 170 543 L 175 541 L 231 568 Z" fill="#212025"/>
	<path d="M 371 336 L 371 424 " stroke="#212025" stroke-width="3" fill="none"/>
	<path d="M 329 399 L 417 355 " stroke="#212025" stroke-width="3" fill="none"/>
</svg>